# xmcd
#
# Track frame offsets:
#	150
#	20849
#	40621
#	59328
#	82671
#	101627
#	123512
#	142034
#	160772
#	181142
#	200337
#	221596
#
# Disc length: 3241 seconds
#
# Revision: 0
# Processed by: cddbd v1.5.2PL0 Copyright (c) Steve Scherf et al.
# Submitted via: audiograbber 1.83.01
#
DISCID=9f0ca70c
DTITLE=SAMUEL PLACIDE - SAMUEL PLACIDE
DYEAR=2010
DGENRE=WORLD
TTITLE0=FANM KA KOUMANDE
TTITLE1=SA RIVE MWEN
TTITLE2=OU KE RENTRE A PIE
TTITLE3=FANATIC MANDE
TTITLE4=DESORMAIS JE LE PROMETS
TTITLE5=AVE'W DOU
TTITLE6=REVOLVE
TTITLE7=BAW LANMOU MWEN
TTITLE8=M'PA CAPAV RETE SON VOU
TTITLE9=DESORMAIS JE LE PROMETS (ACCOUSTIQUE)
TTITLE10=KREDI SE FRE SEZU
TTITLE11=GWO PWEL LA KA MANJE MWEN
EXTD=
EXTT0=
EXTT1=
EXTT2=
EXTT3=
EXTT4=
EXTT5=
EXTT6=
EXTT7=
EXTT8=
EXTT9=
EXTT10=
EXTT11=
PLAYORDER=
